<mxfile host="app.diagrams.net" modified="2024-04-17T15:38:01.851Z" agent="Mozilla/5.0 (Windows NT 10.0; Win64; x64) AppleWebKit/537.36 (KHTML, like Gecko) Chrome/123.0.0.0 Safari/537.36" etag="MTOcC2fpwZYvP7ozTIBF" version="24.2.5" type="device">
  <diagram id="C5RBs43oDa-KdzZeNtuy" name="Page-1">
    <mxGraphModel dx="2617" dy="2258" grid="1" gridSize="10" guides="1" tooltips="1" connect="1" arrows="1" fold="1" page="1" pageScale="1" pageWidth="827" pageHeight="1169" math="0" shadow="0">
      <root>
        <mxCell id="WIyWlLk6GJQsqaUBKTNV-0" />
        <mxCell id="WIyWlLk6GJQsqaUBKTNV-1" parent="WIyWlLk6GJQsqaUBKTNV-0" />
        <mxCell id="oegSrSSOjglE7JF_8wPf-7" value="users_project" style="shape=table;startSize=30;container=1;collapsible=0;childLayout=tableLayout;strokeColor=default;fontSize=16;" vertex="1" parent="WIyWlLk6GJQsqaUBKTNV-1">
          <mxGeometry x="20" y="-370" width="154" height="150" as="geometry" />
        </mxCell>
        <mxCell id="oegSrSSOjglE7JF_8wPf-8" value="" style="shape=tableRow;horizontal=0;startSize=0;swimlaneHead=0;swimlaneBody=0;strokeColor=inherit;top=0;left=0;bottom=0;right=0;collapsible=0;dropTarget=0;fillColor=none;points=[[0,0.5],[1,0.5]];portConstraint=eastwest;fontSize=16;" vertex="1" parent="oegSrSSOjglE7JF_8wPf-7">
          <mxGeometry y="30" width="154" height="40" as="geometry" />
        </mxCell>
        <mxCell id="oegSrSSOjglE7JF_8wPf-10" value="id" style="shape=partialRectangle;html=1;whiteSpace=wrap;connectable=0;strokeColor=inherit;overflow=hidden;fillColor=none;top=0;left=0;bottom=0;right=0;pointerEvents=1;fontSize=16;" vertex="1" parent="oegSrSSOjglE7JF_8wPf-8">
          <mxGeometry width="78" height="40" as="geometry">
            <mxRectangle width="78" height="40" as="alternateBounds" />
          </mxGeometry>
        </mxCell>
        <mxCell id="oegSrSSOjglE7JF_8wPf-11" value="integer" style="shape=partialRectangle;html=1;whiteSpace=wrap;connectable=0;strokeColor=inherit;overflow=hidden;fillColor=none;top=0;left=0;bottom=0;right=0;pointerEvents=1;fontSize=16;" vertex="1" parent="oegSrSSOjglE7JF_8wPf-8">
          <mxGeometry x="78" width="76" height="40" as="geometry">
            <mxRectangle width="76" height="40" as="alternateBounds" />
          </mxGeometry>
        </mxCell>
        <mxCell id="oegSrSSOjglE7JF_8wPf-12" value="" style="shape=tableRow;horizontal=0;startSize=0;swimlaneHead=0;swimlaneBody=0;strokeColor=inherit;top=0;left=0;bottom=0;right=0;collapsible=0;dropTarget=0;fillColor=none;points=[[0,0.5],[1,0.5]];portConstraint=eastwest;fontSize=16;" vertex="1" parent="oegSrSSOjglE7JF_8wPf-7">
          <mxGeometry y="70" width="154" height="40" as="geometry" />
        </mxCell>
        <mxCell id="oegSrSSOjglE7JF_8wPf-14" value="user_id" style="shape=partialRectangle;html=1;whiteSpace=wrap;connectable=0;strokeColor=inherit;overflow=hidden;fillColor=none;top=0;left=0;bottom=0;right=0;pointerEvents=1;fontSize=16;" vertex="1" parent="oegSrSSOjglE7JF_8wPf-12">
          <mxGeometry width="78" height="40" as="geometry">
            <mxRectangle width="78" height="40" as="alternateBounds" />
          </mxGeometry>
        </mxCell>
        <mxCell id="oegSrSSOjglE7JF_8wPf-15" value="&lt;div&gt;integer&lt;/div&gt;" style="shape=partialRectangle;html=1;whiteSpace=wrap;connectable=0;strokeColor=inherit;overflow=hidden;fillColor=none;top=0;left=0;bottom=0;right=0;pointerEvents=1;fontSize=16;align=center;" vertex="1" parent="oegSrSSOjglE7JF_8wPf-12">
          <mxGeometry x="78" width="76" height="40" as="geometry">
            <mxRectangle width="76" height="40" as="alternateBounds" />
          </mxGeometry>
        </mxCell>
        <mxCell id="oegSrSSOjglE7JF_8wPf-16" value="" style="shape=tableRow;horizontal=0;startSize=0;swimlaneHead=0;swimlaneBody=0;strokeColor=inherit;top=0;left=0;bottom=0;right=0;collapsible=0;dropTarget=0;fillColor=none;points=[[0,0.5],[1,0.5]];portConstraint=eastwest;fontSize=16;" vertex="1" parent="oegSrSSOjglE7JF_8wPf-7">
          <mxGeometry y="110" width="154" height="40" as="geometry" />
        </mxCell>
        <mxCell id="oegSrSSOjglE7JF_8wPf-18" value="project_id" style="shape=partialRectangle;html=1;whiteSpace=wrap;connectable=0;strokeColor=inherit;overflow=hidden;fillColor=none;top=0;left=0;bottom=0;right=0;pointerEvents=1;fontSize=16;align=center;" vertex="1" parent="oegSrSSOjglE7JF_8wPf-16">
          <mxGeometry width="78" height="40" as="geometry">
            <mxRectangle width="78" height="40" as="alternateBounds" />
          </mxGeometry>
        </mxCell>
        <mxCell id="oegSrSSOjglE7JF_8wPf-19" value="&lt;span style=&quot;color: rgb(0, 0, 0); font-family: Helvetica; font-size: 16px; font-style: normal; font-variant-ligatures: normal; font-variant-caps: normal; font-weight: 400; letter-spacing: normal; orphans: 2; text-align: center; text-indent: 0px; text-transform: none; widows: 2; word-spacing: 0px; -webkit-text-stroke-width: 0px; white-space: normal; background-color: rgb(251, 251, 251); text-decoration-thickness: initial; text-decoration-style: initial; text-decoration-color: initial; display: inline !important; float: none;&quot;&gt;integer&lt;/span&gt;" style="shape=partialRectangle;html=1;whiteSpace=wrap;connectable=0;strokeColor=inherit;overflow=hidden;fillColor=none;top=0;left=0;bottom=0;right=0;pointerEvents=1;fontSize=16;" vertex="1" parent="oegSrSSOjglE7JF_8wPf-16">
          <mxGeometry x="78" width="76" height="40" as="geometry">
            <mxRectangle width="76" height="40" as="alternateBounds" />
          </mxGeometry>
        </mxCell>
        <mxCell id="oegSrSSOjglE7JF_8wPf-33" value="users" style="shape=table;startSize=30;container=1;collapsible=0;childLayout=tableLayout;strokeColor=default;fontSize=16;" vertex="1" parent="WIyWlLk6GJQsqaUBKTNV-1">
          <mxGeometry x="-460" y="-90" width="240" height="230" as="geometry" />
        </mxCell>
        <mxCell id="oegSrSSOjglE7JF_8wPf-34" value="" style="shape=tableRow;horizontal=0;startSize=0;swimlaneHead=0;swimlaneBody=0;strokeColor=inherit;top=0;left=0;bottom=0;right=0;collapsible=0;dropTarget=0;fillColor=none;points=[[0,0.5],[1,0.5]];portConstraint=eastwest;fontSize=16;" vertex="1" parent="oegSrSSOjglE7JF_8wPf-33">
          <mxGeometry y="30" width="240" height="40" as="geometry" />
        </mxCell>
        <mxCell id="oegSrSSOjglE7JF_8wPf-35" value="id" style="shape=partialRectangle;html=1;whiteSpace=wrap;connectable=0;strokeColor=inherit;overflow=hidden;fillColor=none;top=0;left=0;bottom=0;right=0;pointerEvents=1;fontSize=16;" vertex="1" parent="oegSrSSOjglE7JF_8wPf-34">
          <mxGeometry width="120" height="40" as="geometry">
            <mxRectangle width="120" height="40" as="alternateBounds" />
          </mxGeometry>
        </mxCell>
        <mxCell id="oegSrSSOjglE7JF_8wPf-36" value="integer" style="shape=partialRectangle;html=1;whiteSpace=wrap;connectable=0;strokeColor=inherit;overflow=hidden;fillColor=none;top=0;left=0;bottom=0;right=0;pointerEvents=1;fontSize=16;" vertex="1" parent="oegSrSSOjglE7JF_8wPf-34">
          <mxGeometry x="120" width="120" height="40" as="geometry">
            <mxRectangle width="120" height="40" as="alternateBounds" />
          </mxGeometry>
        </mxCell>
        <mxCell id="oegSrSSOjglE7JF_8wPf-38" value="" style="shape=tableRow;horizontal=0;startSize=0;swimlaneHead=0;swimlaneBody=0;strokeColor=inherit;top=0;left=0;bottom=0;right=0;collapsible=0;dropTarget=0;fillColor=none;points=[[0,0.5],[1,0.5]];portConstraint=eastwest;fontSize=16;" vertex="1" parent="oegSrSSOjglE7JF_8wPf-33">
          <mxGeometry y="70" width="240" height="40" as="geometry" />
        </mxCell>
        <mxCell id="oegSrSSOjglE7JF_8wPf-39" value="name" style="shape=partialRectangle;html=1;whiteSpace=wrap;connectable=0;strokeColor=inherit;overflow=hidden;fillColor=none;top=0;left=0;bottom=0;right=0;pointerEvents=1;fontSize=16;" vertex="1" parent="oegSrSSOjglE7JF_8wPf-38">
          <mxGeometry width="120" height="40" as="geometry">
            <mxRectangle width="120" height="40" as="alternateBounds" />
          </mxGeometry>
        </mxCell>
        <mxCell id="oegSrSSOjglE7JF_8wPf-40" value="varchar(255)" style="shape=partialRectangle;html=1;whiteSpace=wrap;connectable=0;strokeColor=inherit;overflow=hidden;fillColor=none;top=0;left=0;bottom=0;right=0;pointerEvents=1;fontSize=16;" vertex="1" parent="oegSrSSOjglE7JF_8wPf-38">
          <mxGeometry x="120" width="120" height="40" as="geometry">
            <mxRectangle width="120" height="40" as="alternateBounds" />
          </mxGeometry>
        </mxCell>
        <mxCell id="oegSrSSOjglE7JF_8wPf-85" style="shape=tableRow;horizontal=0;startSize=0;swimlaneHead=0;swimlaneBody=0;strokeColor=inherit;top=0;left=0;bottom=0;right=0;collapsible=0;dropTarget=0;fillColor=none;points=[[0,0.5],[1,0.5]];portConstraint=eastwest;fontSize=16;" vertex="1" parent="oegSrSSOjglE7JF_8wPf-33">
          <mxGeometry y="110" width="240" height="40" as="geometry" />
        </mxCell>
        <mxCell id="oegSrSSOjglE7JF_8wPf-86" value="email" style="shape=partialRectangle;html=1;whiteSpace=wrap;connectable=0;strokeColor=inherit;overflow=hidden;fillColor=none;top=0;left=0;bottom=0;right=0;pointerEvents=1;fontSize=16;" vertex="1" parent="oegSrSSOjglE7JF_8wPf-85">
          <mxGeometry width="120" height="40" as="geometry">
            <mxRectangle width="120" height="40" as="alternateBounds" />
          </mxGeometry>
        </mxCell>
        <mxCell id="oegSrSSOjglE7JF_8wPf-87" value="varchar(255)" style="shape=partialRectangle;html=1;whiteSpace=wrap;connectable=0;strokeColor=inherit;overflow=hidden;fillColor=none;top=0;left=0;bottom=0;right=0;pointerEvents=1;fontSize=16;" vertex="1" parent="oegSrSSOjglE7JF_8wPf-85">
          <mxGeometry x="120" width="120" height="40" as="geometry">
            <mxRectangle width="120" height="40" as="alternateBounds" />
          </mxGeometry>
        </mxCell>
        <mxCell id="oegSrSSOjglE7JF_8wPf-42" value="" style="shape=tableRow;horizontal=0;startSize=0;swimlaneHead=0;swimlaneBody=0;strokeColor=inherit;top=0;left=0;bottom=0;right=0;collapsible=0;dropTarget=0;fillColor=none;points=[[0,0.5],[1,0.5]];portConstraint=eastwest;fontSize=16;" vertex="1" parent="oegSrSSOjglE7JF_8wPf-33">
          <mxGeometry y="150" width="240" height="40" as="geometry" />
        </mxCell>
        <mxCell id="oegSrSSOjglE7JF_8wPf-43" value="username" style="shape=partialRectangle;html=1;whiteSpace=wrap;connectable=0;strokeColor=inherit;overflow=hidden;fillColor=none;top=0;left=0;bottom=0;right=0;pointerEvents=1;fontSize=16;" vertex="1" parent="oegSrSSOjglE7JF_8wPf-42">
          <mxGeometry width="120" height="40" as="geometry">
            <mxRectangle width="120" height="40" as="alternateBounds" />
          </mxGeometry>
        </mxCell>
        <mxCell id="oegSrSSOjglE7JF_8wPf-44" value="&lt;span style=&quot;color: rgb(0, 0, 0); font-family: Helvetica; font-size: 16px; font-style: normal; font-variant-ligatures: normal; font-variant-caps: normal; font-weight: 400; letter-spacing: normal; orphans: 2; text-align: center; text-indent: 0px; text-transform: none; widows: 2; word-spacing: 0px; -webkit-text-stroke-width: 0px; white-space: normal; background-color: rgb(251, 251, 251); text-decoration-thickness: initial; text-decoration-style: initial; text-decoration-color: initial; display: inline !important; float: none;&quot;&gt;varchar(255)&lt;/span&gt;" style="shape=partialRectangle;html=1;whiteSpace=wrap;connectable=0;strokeColor=inherit;overflow=hidden;fillColor=none;top=0;left=0;bottom=0;right=0;pointerEvents=1;fontSize=16;" vertex="1" parent="oegSrSSOjglE7JF_8wPf-42">
          <mxGeometry x="120" width="120" height="40" as="geometry">
            <mxRectangle width="120" height="40" as="alternateBounds" />
          </mxGeometry>
        </mxCell>
        <mxCell id="oegSrSSOjglE7JF_8wPf-72" style="shape=tableRow;horizontal=0;startSize=0;swimlaneHead=0;swimlaneBody=0;strokeColor=inherit;top=0;left=0;bottom=0;right=0;collapsible=0;dropTarget=0;fillColor=none;points=[[0,0.5],[1,0.5]];portConstraint=eastwest;fontSize=16;" vertex="1" parent="oegSrSSOjglE7JF_8wPf-33">
          <mxGeometry y="190" width="240" height="40" as="geometry" />
        </mxCell>
        <mxCell id="oegSrSSOjglE7JF_8wPf-73" value="password_hash" style="shape=partialRectangle;html=1;whiteSpace=wrap;connectable=0;strokeColor=inherit;overflow=hidden;fillColor=none;top=0;left=0;bottom=0;right=0;pointerEvents=1;fontSize=16;" vertex="1" parent="oegSrSSOjglE7JF_8wPf-72">
          <mxGeometry width="120" height="40" as="geometry">
            <mxRectangle width="120" height="40" as="alternateBounds" />
          </mxGeometry>
        </mxCell>
        <mxCell id="oegSrSSOjglE7JF_8wPf-74" value="&lt;span style=&quot;color: rgb(0, 0, 0); font-family: Helvetica; font-size: 16px; font-style: normal; font-variant-ligatures: normal; font-variant-caps: normal; font-weight: 400; letter-spacing: normal; orphans: 2; text-align: center; text-indent: 0px; text-transform: none; widows: 2; word-spacing: 0px; -webkit-text-stroke-width: 0px; white-space: normal; background-color: rgb(251, 251, 251); text-decoration-thickness: initial; text-decoration-style: initial; text-decoration-color: initial; display: inline !important; float: none;&quot;&gt;varchar(255)&lt;/span&gt;" style="shape=partialRectangle;html=1;whiteSpace=wrap;connectable=0;strokeColor=inherit;overflow=hidden;fillColor=none;top=0;left=0;bottom=0;right=0;pointerEvents=1;fontSize=16;" vertex="1" parent="oegSrSSOjglE7JF_8wPf-72">
          <mxGeometry x="120" width="120" height="40" as="geometry">
            <mxRectangle width="120" height="40" as="alternateBounds" />
          </mxGeometry>
        </mxCell>
        <mxCell id="oegSrSSOjglE7JF_8wPf-113" style="edgeStyle=orthogonalEdgeStyle;rounded=0;orthogonalLoop=1;jettySize=auto;html=1;exitX=1;exitY=0.5;exitDx=0;exitDy=0;entryX=0;entryY=0.5;entryDx=0;entryDy=0;" edge="1" parent="WIyWlLk6GJQsqaUBKTNV-1" source="oegSrSSOjglE7JF_8wPf-34" target="oegSrSSOjglE7JF_8wPf-12">
          <mxGeometry relative="1" as="geometry">
            <Array as="points">
              <mxPoint x="-150" y="-40" />
              <mxPoint x="-150" y="-280" />
            </Array>
          </mxGeometry>
        </mxCell>
        <mxCell id="oegSrSSOjglE7JF_8wPf-20" value="projects" style="shape=table;startSize=30;container=1;collapsible=0;childLayout=tableLayout;strokeColor=default;fontSize=16;" vertex="1" parent="WIyWlLk6GJQsqaUBKTNV-1">
          <mxGeometry x="-60" y="20.004545454545337" width="216" height="200.18181818181813" as="geometry" />
        </mxCell>
        <mxCell id="oegSrSSOjglE7JF_8wPf-21" value="" style="shape=tableRow;horizontal=0;startSize=0;swimlaneHead=0;swimlaneBody=0;strokeColor=inherit;top=0;left=0;bottom=0;right=0;collapsible=0;dropTarget=0;fillColor=none;points=[[0,0.5],[1,0.5]];portConstraint=eastwest;fontSize=16;" vertex="1" parent="oegSrSSOjglE7JF_8wPf-20">
          <mxGeometry y="30" width="216" height="42" as="geometry" />
        </mxCell>
        <mxCell id="oegSrSSOjglE7JF_8wPf-22" value="id" style="shape=partialRectangle;html=1;whiteSpace=wrap;connectable=0;strokeColor=inherit;overflow=hidden;fillColor=none;top=0;left=0;bottom=0;right=0;pointerEvents=1;fontSize=16;" vertex="1" parent="oegSrSSOjglE7JF_8wPf-21">
          <mxGeometry width="100" height="42" as="geometry">
            <mxRectangle width="100" height="42" as="alternateBounds" />
          </mxGeometry>
        </mxCell>
        <mxCell id="oegSrSSOjglE7JF_8wPf-23" value="integer" style="shape=partialRectangle;html=1;whiteSpace=wrap;connectable=0;strokeColor=inherit;overflow=hidden;fillColor=none;top=0;left=0;bottom=0;right=0;pointerEvents=1;fontSize=16;" vertex="1" parent="oegSrSSOjglE7JF_8wPf-21">
          <mxGeometry x="100" width="116" height="42" as="geometry">
            <mxRectangle width="116" height="42" as="alternateBounds" />
          </mxGeometry>
        </mxCell>
        <mxCell id="oegSrSSOjglE7JF_8wPf-25" value="" style="shape=tableRow;horizontal=0;startSize=0;swimlaneHead=0;swimlaneBody=0;strokeColor=inherit;top=0;left=0;bottom=0;right=0;collapsible=0;dropTarget=0;fillColor=none;points=[[0,0.5],[1,0.5]];portConstraint=eastwest;fontSize=16;" vertex="1" parent="oegSrSSOjglE7JF_8wPf-20">
          <mxGeometry y="72" width="216" height="44" as="geometry" />
        </mxCell>
        <mxCell id="oegSrSSOjglE7JF_8wPf-26" value="title" style="shape=partialRectangle;html=1;whiteSpace=wrap;connectable=0;strokeColor=inherit;overflow=hidden;fillColor=none;top=0;left=0;bottom=0;right=0;pointerEvents=1;fontSize=16;" vertex="1" parent="oegSrSSOjglE7JF_8wPf-25">
          <mxGeometry width="100" height="44" as="geometry">
            <mxRectangle width="100" height="44" as="alternateBounds" />
          </mxGeometry>
        </mxCell>
        <mxCell id="oegSrSSOjglE7JF_8wPf-27" value="varchar(255)" style="shape=partialRectangle;html=1;whiteSpace=wrap;connectable=0;strokeColor=inherit;overflow=hidden;fillColor=none;top=0;left=0;bottom=0;right=0;pointerEvents=1;fontSize=16;" vertex="1" parent="oegSrSSOjglE7JF_8wPf-25">
          <mxGeometry x="100" width="116" height="44" as="geometry">
            <mxRectangle width="116" height="44" as="alternateBounds" />
          </mxGeometry>
        </mxCell>
        <mxCell id="oegSrSSOjglE7JF_8wPf-29" value="" style="shape=tableRow;horizontal=0;startSize=0;swimlaneHead=0;swimlaneBody=0;strokeColor=inherit;top=0;left=0;bottom=0;right=0;collapsible=0;dropTarget=0;fillColor=none;points=[[0,0.5],[1,0.5]];portConstraint=eastwest;fontSize=16;" vertex="1" parent="oegSrSSOjglE7JF_8wPf-20">
          <mxGeometry y="116" width="216" height="42" as="geometry" />
        </mxCell>
        <mxCell id="oegSrSSOjglE7JF_8wPf-30" value="description" style="shape=partialRectangle;html=1;whiteSpace=wrap;connectable=0;strokeColor=inherit;overflow=hidden;fillColor=none;top=0;left=0;bottom=0;right=0;pointerEvents=1;fontSize=16;" vertex="1" parent="oegSrSSOjglE7JF_8wPf-29">
          <mxGeometry width="100" height="42" as="geometry">
            <mxRectangle width="100" height="42" as="alternateBounds" />
          </mxGeometry>
        </mxCell>
        <mxCell id="oegSrSSOjglE7JF_8wPf-31" value="varchar(255)" style="shape=partialRectangle;html=1;whiteSpace=wrap;connectable=0;strokeColor=inherit;overflow=hidden;fillColor=none;top=0;left=0;bottom=0;right=0;pointerEvents=1;fontSize=16;" vertex="1" parent="oegSrSSOjglE7JF_8wPf-29">
          <mxGeometry x="100" width="116" height="42" as="geometry">
            <mxRectangle width="116" height="42" as="alternateBounds" />
          </mxGeometry>
        </mxCell>
        <mxCell id="oegSrSSOjglE7JF_8wPf-119" style="shape=tableRow;horizontal=0;startSize=0;swimlaneHead=0;swimlaneBody=0;strokeColor=inherit;top=0;left=0;bottom=0;right=0;collapsible=0;dropTarget=0;fillColor=none;points=[[0,0.5],[1,0.5]];portConstraint=eastwest;fontSize=16;" vertex="1" parent="oegSrSSOjglE7JF_8wPf-20">
          <mxGeometry y="158" width="216" height="42" as="geometry" />
        </mxCell>
        <mxCell id="oegSrSSOjglE7JF_8wPf-120" value="git_url" style="shape=partialRectangle;html=1;whiteSpace=wrap;connectable=0;strokeColor=inherit;overflow=hidden;fillColor=none;top=0;left=0;bottom=0;right=0;pointerEvents=1;fontSize=16;" vertex="1" parent="oegSrSSOjglE7JF_8wPf-119">
          <mxGeometry width="100" height="42" as="geometry">
            <mxRectangle width="100" height="42" as="alternateBounds" />
          </mxGeometry>
        </mxCell>
        <mxCell id="oegSrSSOjglE7JF_8wPf-121" value="varchar(255)" style="shape=partialRectangle;html=1;whiteSpace=wrap;connectable=0;strokeColor=inherit;overflow=hidden;fillColor=none;top=0;left=0;bottom=0;right=0;pointerEvents=1;fontSize=16;" vertex="1" parent="oegSrSSOjglE7JF_8wPf-119">
          <mxGeometry x="100" width="116" height="42" as="geometry">
            <mxRectangle width="116" height="42" as="alternateBounds" />
          </mxGeometry>
        </mxCell>
        <mxCell id="oegSrSSOjglE7JF_8wPf-46" value="sast" style="shape=table;startSize=30;container=1;collapsible=0;childLayout=tableLayout;strokeColor=default;fontSize=16;" vertex="1" parent="WIyWlLk6GJQsqaUBKTNV-1">
          <mxGeometry x="270" y="-370" width="210" height="150" as="geometry" />
        </mxCell>
        <mxCell id="oegSrSSOjglE7JF_8wPf-47" value="" style="shape=tableRow;horizontal=0;startSize=0;swimlaneHead=0;swimlaneBody=0;strokeColor=inherit;top=0;left=0;bottom=0;right=0;collapsible=0;dropTarget=0;fillColor=none;points=[[0,0.5],[1,0.5]];portConstraint=eastwest;fontSize=16;" vertex="1" parent="oegSrSSOjglE7JF_8wPf-46">
          <mxGeometry y="30" width="210" height="40" as="geometry" />
        </mxCell>
        <mxCell id="oegSrSSOjglE7JF_8wPf-48" value="id" style="shape=partialRectangle;html=1;whiteSpace=wrap;connectable=0;strokeColor=inherit;overflow=hidden;fillColor=none;top=0;left=0;bottom=0;right=0;pointerEvents=1;fontSize=16;" vertex="1" parent="oegSrSSOjglE7JF_8wPf-47">
          <mxGeometry width="105" height="40" as="geometry">
            <mxRectangle width="105" height="40" as="alternateBounds" />
          </mxGeometry>
        </mxCell>
        <mxCell id="oegSrSSOjglE7JF_8wPf-49" value="integer" style="shape=partialRectangle;html=1;whiteSpace=wrap;connectable=0;strokeColor=inherit;overflow=hidden;fillColor=none;top=0;left=0;bottom=0;right=0;pointerEvents=1;fontSize=16;" vertex="1" parent="oegSrSSOjglE7JF_8wPf-47">
          <mxGeometry x="105" width="105" height="40" as="geometry">
            <mxRectangle width="105" height="40" as="alternateBounds" />
          </mxGeometry>
        </mxCell>
        <mxCell id="oegSrSSOjglE7JF_8wPf-51" value="" style="shape=tableRow;horizontal=0;startSize=0;swimlaneHead=0;swimlaneBody=0;strokeColor=inherit;top=0;left=0;bottom=0;right=0;collapsible=0;dropTarget=0;fillColor=none;points=[[0,0.5],[1,0.5]];portConstraint=eastwest;fontSize=16;" vertex="1" parent="oegSrSSOjglE7JF_8wPf-46">
          <mxGeometry y="70" width="210" height="40" as="geometry" />
        </mxCell>
        <mxCell id="oegSrSSOjglE7JF_8wPf-52" value="project_id" style="shape=partialRectangle;html=1;whiteSpace=wrap;connectable=0;strokeColor=inherit;overflow=hidden;fillColor=none;top=0;left=0;bottom=0;right=0;pointerEvents=1;fontSize=16;" vertex="1" parent="oegSrSSOjglE7JF_8wPf-51">
          <mxGeometry width="105" height="40" as="geometry">
            <mxRectangle width="105" height="40" as="alternateBounds" />
          </mxGeometry>
        </mxCell>
        <mxCell id="oegSrSSOjglE7JF_8wPf-53" value="integer" style="shape=partialRectangle;html=1;whiteSpace=wrap;connectable=0;strokeColor=inherit;overflow=hidden;fillColor=none;top=0;left=0;bottom=0;right=0;pointerEvents=1;fontSize=16;" vertex="1" parent="oegSrSSOjglE7JF_8wPf-51">
          <mxGeometry x="105" width="105" height="40" as="geometry">
            <mxRectangle width="105" height="40" as="alternateBounds" />
          </mxGeometry>
        </mxCell>
        <mxCell id="oegSrSSOjglE7JF_8wPf-55" value="" style="shape=tableRow;horizontal=0;startSize=0;swimlaneHead=0;swimlaneBody=0;strokeColor=inherit;top=0;left=0;bottom=0;right=0;collapsible=0;dropTarget=0;fillColor=none;points=[[0,0.5],[1,0.5]];portConstraint=eastwest;fontSize=16;" vertex="1" parent="oegSrSSOjglE7JF_8wPf-46">
          <mxGeometry y="110" width="210" height="40" as="geometry" />
        </mxCell>
        <mxCell id="oegSrSSOjglE7JF_8wPf-56" value="&lt;span style=&quot;text-wrap: nowrap;&quot;&gt;sast_scan_id&lt;/span&gt;" style="shape=partialRectangle;html=1;whiteSpace=wrap;connectable=0;strokeColor=inherit;overflow=hidden;fillColor=none;top=0;left=0;bottom=0;right=0;pointerEvents=1;fontSize=16;" vertex="1" parent="oegSrSSOjglE7JF_8wPf-55">
          <mxGeometry width="105" height="40" as="geometry">
            <mxRectangle width="105" height="40" as="alternateBounds" />
          </mxGeometry>
        </mxCell>
        <mxCell id="oegSrSSOjglE7JF_8wPf-57" value="integer" style="shape=partialRectangle;html=1;whiteSpace=wrap;connectable=0;strokeColor=inherit;overflow=hidden;fillColor=none;top=0;left=0;bottom=0;right=0;pointerEvents=1;fontSize=16;" vertex="1" parent="oegSrSSOjglE7JF_8wPf-55">
          <mxGeometry x="105" width="105" height="40" as="geometry">
            <mxRectangle width="105" height="40" as="alternateBounds" />
          </mxGeometry>
        </mxCell>
        <mxCell id="oegSrSSOjglE7JF_8wPf-59" value="sast_scan_list" style="shape=table;startSize=30;container=1;collapsible=0;childLayout=tableLayout;strokeColor=default;fontSize=16;" vertex="1" parent="WIyWlLk6GJQsqaUBKTNV-1">
          <mxGeometry x="340" y="-164.92909090909092" width="250" height="304.9318181818182" as="geometry" />
        </mxCell>
        <mxCell id="oegSrSSOjglE7JF_8wPf-60" value="" style="shape=tableRow;horizontal=0;startSize=0;swimlaneHead=0;swimlaneBody=0;strokeColor=inherit;top=0;left=0;bottom=0;right=0;collapsible=0;dropTarget=0;fillColor=none;points=[[0,0.5],[1,0.5]];portConstraint=eastwest;fontSize=16;" vertex="1" parent="oegSrSSOjglE7JF_8wPf-59">
          <mxGeometry y="30" width="250" height="39" as="geometry" />
        </mxCell>
        <mxCell id="oegSrSSOjglE7JF_8wPf-61" value="id" style="shape=partialRectangle;html=1;whiteSpace=wrap;connectable=0;strokeColor=inherit;overflow=hidden;fillColor=none;top=0;left=0;bottom=0;right=0;pointerEvents=1;fontSize=16;" vertex="1" parent="oegSrSSOjglE7JF_8wPf-60">
          <mxGeometry width="125" height="39" as="geometry">
            <mxRectangle width="125" height="39" as="alternateBounds" />
          </mxGeometry>
        </mxCell>
        <mxCell id="oegSrSSOjglE7JF_8wPf-62" value="integer" style="shape=partialRectangle;html=1;whiteSpace=wrap;connectable=0;strokeColor=inherit;overflow=hidden;fillColor=none;top=0;left=0;bottom=0;right=0;pointerEvents=1;fontSize=16;" vertex="1" parent="oegSrSSOjglE7JF_8wPf-60">
          <mxGeometry x="125" width="125" height="39" as="geometry">
            <mxRectangle width="125" height="39" as="alternateBounds" />
          </mxGeometry>
        </mxCell>
        <mxCell id="oegSrSSOjglE7JF_8wPf-64" value="" style="shape=tableRow;horizontal=0;startSize=0;swimlaneHead=0;swimlaneBody=0;strokeColor=inherit;top=0;left=0;bottom=0;right=0;collapsible=0;dropTarget=0;fillColor=none;points=[[0,0.5],[1,0.5]];portConstraint=eastwest;fontSize=16;" vertex="1" parent="oegSrSSOjglE7JF_8wPf-59">
          <mxGeometry y="69" width="250" height="40" as="geometry" />
        </mxCell>
        <mxCell id="oegSrSSOjglE7JF_8wPf-65" value="title" style="shape=partialRectangle;html=1;whiteSpace=wrap;connectable=0;strokeColor=inherit;overflow=hidden;fillColor=none;top=0;left=0;bottom=0;right=0;pointerEvents=1;fontSize=16;" vertex="1" parent="oegSrSSOjglE7JF_8wPf-64">
          <mxGeometry width="125" height="40" as="geometry">
            <mxRectangle width="125" height="40" as="alternateBounds" />
          </mxGeometry>
        </mxCell>
        <mxCell id="oegSrSSOjglE7JF_8wPf-66" value="varchar(255)" style="shape=partialRectangle;html=1;whiteSpace=wrap;connectable=0;strokeColor=inherit;overflow=hidden;fillColor=none;top=0;left=0;bottom=0;right=0;pointerEvents=1;fontSize=16;" vertex="1" parent="oegSrSSOjglE7JF_8wPf-64">
          <mxGeometry x="125" width="125" height="40" as="geometry">
            <mxRectangle width="125" height="40" as="alternateBounds" />
          </mxGeometry>
        </mxCell>
        <mxCell id="oegSrSSOjglE7JF_8wPf-68" value="" style="shape=tableRow;horizontal=0;startSize=0;swimlaneHead=0;swimlaneBody=0;strokeColor=inherit;top=0;left=0;bottom=0;right=0;collapsible=0;dropTarget=0;fillColor=none;points=[[0,0.5],[1,0.5]];portConstraint=eastwest;fontSize=16;" vertex="1" parent="oegSrSSOjglE7JF_8wPf-59">
          <mxGeometry y="109" width="250" height="39" as="geometry" />
        </mxCell>
        <mxCell id="oegSrSSOjglE7JF_8wPf-69" value="description" style="shape=partialRectangle;html=1;whiteSpace=wrap;connectable=0;strokeColor=inherit;overflow=hidden;fillColor=none;top=0;left=0;bottom=0;right=0;pointerEvents=1;fontSize=16;" vertex="1" parent="oegSrSSOjglE7JF_8wPf-68">
          <mxGeometry width="125" height="39" as="geometry">
            <mxRectangle width="125" height="39" as="alternateBounds" />
          </mxGeometry>
        </mxCell>
        <mxCell id="oegSrSSOjglE7JF_8wPf-70" value="varchar(255)" style="shape=partialRectangle;html=1;whiteSpace=wrap;connectable=0;strokeColor=inherit;overflow=hidden;fillColor=none;top=0;left=0;bottom=0;right=0;pointerEvents=1;fontSize=16;" vertex="1" parent="oegSrSSOjglE7JF_8wPf-68">
          <mxGeometry x="125" width="125" height="39" as="geometry">
            <mxRectangle width="125" height="39" as="alternateBounds" />
          </mxGeometry>
        </mxCell>
        <mxCell id="oegSrSSOjglE7JF_8wPf-92" style="shape=tableRow;horizontal=0;startSize=0;swimlaneHead=0;swimlaneBody=0;strokeColor=inherit;top=0;left=0;bottom=0;right=0;collapsible=0;dropTarget=0;fillColor=none;points=[[0,0.5],[1,0.5]];portConstraint=eastwest;fontSize=16;" vertex="1" parent="oegSrSSOjglE7JF_8wPf-59">
          <mxGeometry y="148" width="250" height="41" as="geometry" />
        </mxCell>
        <mxCell id="oegSrSSOjglE7JF_8wPf-93" value="version" style="shape=partialRectangle;html=1;whiteSpace=wrap;connectable=0;strokeColor=inherit;overflow=hidden;fillColor=none;top=0;left=0;bottom=0;right=0;pointerEvents=1;fontSize=16;" vertex="1" parent="oegSrSSOjglE7JF_8wPf-92">
          <mxGeometry width="125" height="41" as="geometry">
            <mxRectangle width="125" height="41" as="alternateBounds" />
          </mxGeometry>
        </mxCell>
        <mxCell id="oegSrSSOjglE7JF_8wPf-94" value="varchar(255)" style="shape=partialRectangle;html=1;whiteSpace=wrap;connectable=0;strokeColor=inherit;overflow=hidden;fillColor=none;top=0;left=0;bottom=0;right=0;pointerEvents=1;fontSize=16;" vertex="1" parent="oegSrSSOjglE7JF_8wPf-92">
          <mxGeometry x="125" width="125" height="41" as="geometry">
            <mxRectangle width="125" height="41" as="alternateBounds" />
          </mxGeometry>
        </mxCell>
        <mxCell id="oegSrSSOjglE7JF_8wPf-81" style="shape=tableRow;horizontal=0;startSize=0;swimlaneHead=0;swimlaneBody=0;strokeColor=inherit;top=0;left=0;bottom=0;right=0;collapsible=0;dropTarget=0;fillColor=none;points=[[0,0.5],[1,0.5]];portConstraint=eastwest;fontSize=16;" vertex="1" parent="oegSrSSOjglE7JF_8wPf-59">
          <mxGeometry y="189" width="250" height="40" as="geometry" />
        </mxCell>
        <mxCell id="oegSrSSOjglE7JF_8wPf-82" value="status" style="shape=partialRectangle;html=1;whiteSpace=wrap;connectable=0;strokeColor=inherit;overflow=hidden;fillColor=none;top=0;left=0;bottom=0;right=0;pointerEvents=1;fontSize=16;" vertex="1" parent="oegSrSSOjglE7JF_8wPf-81">
          <mxGeometry width="125" height="40" as="geometry">
            <mxRectangle width="125" height="40" as="alternateBounds" />
          </mxGeometry>
        </mxCell>
        <mxCell id="oegSrSSOjglE7JF_8wPf-83" value="boolean" style="shape=partialRectangle;html=1;whiteSpace=wrap;connectable=0;strokeColor=inherit;overflow=hidden;fillColor=none;top=0;left=0;bottom=0;right=0;pointerEvents=1;fontSize=16;" vertex="1" parent="oegSrSSOjglE7JF_8wPf-81">
          <mxGeometry x="125" width="125" height="40" as="geometry">
            <mxRectangle width="125" height="40" as="alternateBounds" />
          </mxGeometry>
        </mxCell>
        <mxCell id="oegSrSSOjglE7JF_8wPf-106" style="shape=tableRow;horizontal=0;startSize=0;swimlaneHead=0;swimlaneBody=0;strokeColor=inherit;top=0;left=0;bottom=0;right=0;collapsible=0;dropTarget=0;fillColor=none;points=[[0,0.5],[1,0.5]];portConstraint=eastwest;fontSize=16;" vertex="1" parent="oegSrSSOjglE7JF_8wPf-59">
          <mxGeometry y="229" width="250" height="38" as="geometry" />
        </mxCell>
        <mxCell id="oegSrSSOjglE7JF_8wPf-107" value="processing_time" style="shape=partialRectangle;html=1;whiteSpace=wrap;connectable=0;strokeColor=inherit;overflow=hidden;fillColor=none;top=0;left=0;bottom=0;right=0;pointerEvents=1;fontSize=16;" vertex="1" parent="oegSrSSOjglE7JF_8wPf-106">
          <mxGeometry width="125" height="38" as="geometry">
            <mxRectangle width="125" height="38" as="alternateBounds" />
          </mxGeometry>
        </mxCell>
        <mxCell id="oegSrSSOjglE7JF_8wPf-108" style="shape=partialRectangle;html=1;whiteSpace=wrap;connectable=0;strokeColor=inherit;overflow=hidden;fillColor=none;top=0;left=0;bottom=0;right=0;pointerEvents=1;fontSize=16;" vertex="1" parent="oegSrSSOjglE7JF_8wPf-106">
          <mxGeometry x="125" width="125" height="38" as="geometry">
            <mxRectangle width="125" height="38" as="alternateBounds" />
          </mxGeometry>
        </mxCell>
        <mxCell id="oegSrSSOjglE7JF_8wPf-115" style="shape=tableRow;horizontal=0;startSize=0;swimlaneHead=0;swimlaneBody=0;strokeColor=inherit;top=0;left=0;bottom=0;right=0;collapsible=0;dropTarget=0;fillColor=none;points=[[0,0.5],[1,0.5]];portConstraint=eastwest;fontSize=16;" vertex="1" parent="oegSrSSOjglE7JF_8wPf-59">
          <mxGeometry y="267" width="250" height="38" as="geometry" />
        </mxCell>
        <mxCell id="oegSrSSOjglE7JF_8wPf-116" value="result_url" style="shape=partialRectangle;html=1;whiteSpace=wrap;connectable=0;strokeColor=inherit;overflow=hidden;fillColor=none;top=0;left=0;bottom=0;right=0;pointerEvents=1;fontSize=16;" vertex="1" parent="oegSrSSOjglE7JF_8wPf-115">
          <mxGeometry width="125" height="38" as="geometry">
            <mxRectangle width="125" height="38" as="alternateBounds" />
          </mxGeometry>
        </mxCell>
        <mxCell id="oegSrSSOjglE7JF_8wPf-117" value="varchar(255)" style="shape=partialRectangle;html=1;whiteSpace=wrap;connectable=0;strokeColor=inherit;overflow=hidden;fillColor=none;top=0;left=0;bottom=0;right=0;pointerEvents=1;fontSize=16;" vertex="1" parent="oegSrSSOjglE7JF_8wPf-115">
          <mxGeometry x="125" width="125" height="38" as="geometry">
            <mxRectangle width="125" height="38" as="alternateBounds" />
          </mxGeometry>
        </mxCell>
        <mxCell id="oegSrSSOjglE7JF_8wPf-114" style="edgeStyle=orthogonalEdgeStyle;rounded=0;orthogonalLoop=1;jettySize=auto;html=1;exitX=0;exitY=0.5;exitDx=0;exitDy=0;entryX=0;entryY=0.5;entryDx=0;entryDy=0;" edge="1" parent="WIyWlLk6GJQsqaUBKTNV-1" source="oegSrSSOjglE7JF_8wPf-21" target="oegSrSSOjglE7JF_8wPf-16">
          <mxGeometry relative="1" as="geometry">
            <Array as="points">
              <mxPoint x="-120" y="70" />
              <mxPoint x="-120" y="-240" />
            </Array>
          </mxGeometry>
        </mxCell>
        <mxCell id="oegSrSSOjglE7JF_8wPf-112" style="edgeStyle=orthogonalEdgeStyle;rounded=0;orthogonalLoop=1;jettySize=auto;html=1;exitX=1;exitY=0.5;exitDx=0;exitDy=0;entryX=0;entryY=0.5;entryDx=0;entryDy=0;" edge="1" parent="WIyWlLk6GJQsqaUBKTNV-1" source="oegSrSSOjglE7JF_8wPf-21" target="oegSrSSOjglE7JF_8wPf-51">
          <mxGeometry relative="1" as="geometry">
            <Array as="points">
              <mxPoint x="240" y="70" />
              <mxPoint x="240" y="-280" />
            </Array>
          </mxGeometry>
        </mxCell>
        <mxCell id="oegSrSSOjglE7JF_8wPf-111" style="edgeStyle=orthogonalEdgeStyle;rounded=0;orthogonalLoop=1;jettySize=auto;html=1;exitX=0;exitY=0.5;exitDx=0;exitDy=0;entryX=0;entryY=0.5;entryDx=0;entryDy=0;" edge="1" parent="WIyWlLk6GJQsqaUBKTNV-1" source="oegSrSSOjglE7JF_8wPf-60" target="oegSrSSOjglE7JF_8wPf-55">
          <mxGeometry relative="1" as="geometry">
            <Array as="points">
              <mxPoint x="340" y="-120" />
              <mxPoint x="200" y="-120" />
              <mxPoint x="200" y="-240" />
            </Array>
          </mxGeometry>
        </mxCell>
        <mxCell id="oegSrSSOjglE7JF_8wPf-147" value="sca" style="shape=table;startSize=30;container=1;collapsible=0;childLayout=tableLayout;strokeColor=default;fontSize=16;" vertex="1" parent="WIyWlLk6GJQsqaUBKTNV-1">
          <mxGeometry x="270" y="200" width="210" height="150" as="geometry" />
        </mxCell>
        <mxCell id="oegSrSSOjglE7JF_8wPf-148" value="" style="shape=tableRow;horizontal=0;startSize=0;swimlaneHead=0;swimlaneBody=0;strokeColor=inherit;top=0;left=0;bottom=0;right=0;collapsible=0;dropTarget=0;fillColor=none;points=[[0,0.5],[1,0.5]];portConstraint=eastwest;fontSize=16;" vertex="1" parent="oegSrSSOjglE7JF_8wPf-147">
          <mxGeometry y="30" width="210" height="40" as="geometry" />
        </mxCell>
        <mxCell id="oegSrSSOjglE7JF_8wPf-149" value="id" style="shape=partialRectangle;html=1;whiteSpace=wrap;connectable=0;strokeColor=inherit;overflow=hidden;fillColor=none;top=0;left=0;bottom=0;right=0;pointerEvents=1;fontSize=16;" vertex="1" parent="oegSrSSOjglE7JF_8wPf-148">
          <mxGeometry width="105" height="40" as="geometry">
            <mxRectangle width="105" height="40" as="alternateBounds" />
          </mxGeometry>
        </mxCell>
        <mxCell id="oegSrSSOjglE7JF_8wPf-150" value="integer" style="shape=partialRectangle;html=1;whiteSpace=wrap;connectable=0;strokeColor=inherit;overflow=hidden;fillColor=none;top=0;left=0;bottom=0;right=0;pointerEvents=1;fontSize=16;" vertex="1" parent="oegSrSSOjglE7JF_8wPf-148">
          <mxGeometry x="105" width="105" height="40" as="geometry">
            <mxRectangle width="105" height="40" as="alternateBounds" />
          </mxGeometry>
        </mxCell>
        <mxCell id="oegSrSSOjglE7JF_8wPf-151" value="" style="shape=tableRow;horizontal=0;startSize=0;swimlaneHead=0;swimlaneBody=0;strokeColor=inherit;top=0;left=0;bottom=0;right=0;collapsible=0;dropTarget=0;fillColor=none;points=[[0,0.5],[1,0.5]];portConstraint=eastwest;fontSize=16;" vertex="1" parent="oegSrSSOjglE7JF_8wPf-147">
          <mxGeometry y="70" width="210" height="40" as="geometry" />
        </mxCell>
        <mxCell id="oegSrSSOjglE7JF_8wPf-152" value="project_id" style="shape=partialRectangle;html=1;whiteSpace=wrap;connectable=0;strokeColor=inherit;overflow=hidden;fillColor=none;top=0;left=0;bottom=0;right=0;pointerEvents=1;fontSize=16;" vertex="1" parent="oegSrSSOjglE7JF_8wPf-151">
          <mxGeometry width="105" height="40" as="geometry">
            <mxRectangle width="105" height="40" as="alternateBounds" />
          </mxGeometry>
        </mxCell>
        <mxCell id="oegSrSSOjglE7JF_8wPf-153" value="integer" style="shape=partialRectangle;html=1;whiteSpace=wrap;connectable=0;strokeColor=inherit;overflow=hidden;fillColor=none;top=0;left=0;bottom=0;right=0;pointerEvents=1;fontSize=16;" vertex="1" parent="oegSrSSOjglE7JF_8wPf-151">
          <mxGeometry x="105" width="105" height="40" as="geometry">
            <mxRectangle width="105" height="40" as="alternateBounds" />
          </mxGeometry>
        </mxCell>
        <mxCell id="oegSrSSOjglE7JF_8wPf-154" value="" style="shape=tableRow;horizontal=0;startSize=0;swimlaneHead=0;swimlaneBody=0;strokeColor=inherit;top=0;left=0;bottom=0;right=0;collapsible=0;dropTarget=0;fillColor=none;points=[[0,0.5],[1,0.5]];portConstraint=eastwest;fontSize=16;" vertex="1" parent="oegSrSSOjglE7JF_8wPf-147">
          <mxGeometry y="110" width="210" height="40" as="geometry" />
        </mxCell>
        <mxCell id="oegSrSSOjglE7JF_8wPf-155" value="&lt;span style=&quot;text-wrap: nowrap;&quot;&gt;sca_scan_id&lt;/span&gt;" style="shape=partialRectangle;html=1;whiteSpace=wrap;connectable=0;strokeColor=inherit;overflow=hidden;fillColor=none;top=0;left=0;bottom=0;right=0;pointerEvents=1;fontSize=16;" vertex="1" parent="oegSrSSOjglE7JF_8wPf-154">
          <mxGeometry width="105" height="40" as="geometry">
            <mxRectangle width="105" height="40" as="alternateBounds" />
          </mxGeometry>
        </mxCell>
        <mxCell id="oegSrSSOjglE7JF_8wPf-156" value="integer" style="shape=partialRectangle;html=1;whiteSpace=wrap;connectable=0;strokeColor=inherit;overflow=hidden;fillColor=none;top=0;left=0;bottom=0;right=0;pointerEvents=1;fontSize=16;" vertex="1" parent="oegSrSSOjglE7JF_8wPf-154">
          <mxGeometry x="105" width="105" height="40" as="geometry">
            <mxRectangle width="105" height="40" as="alternateBounds" />
          </mxGeometry>
        </mxCell>
        <mxCell id="oegSrSSOjglE7JF_8wPf-157" style="edgeStyle=orthogonalEdgeStyle;rounded=0;orthogonalLoop=1;jettySize=auto;html=1;entryX=0;entryY=0.5;entryDx=0;entryDy=0;" edge="1" parent="WIyWlLk6GJQsqaUBKTNV-1" source="oegSrSSOjglE7JF_8wPf-21" target="oegSrSSOjglE7JF_8wPf-151">
          <mxGeometry relative="1" as="geometry" />
        </mxCell>
        <mxCell id="oegSrSSOjglE7JF_8wPf-158" value="sca_scan_list" style="shape=table;startSize=30;container=1;collapsible=0;childLayout=tableLayout;strokeColor=default;fontSize=16;" vertex="1" parent="WIyWlLk6GJQsqaUBKTNV-1">
          <mxGeometry x="340" y="380.00090909090903" width="250" height="304.9318181818182" as="geometry" />
        </mxCell>
        <mxCell id="oegSrSSOjglE7JF_8wPf-159" value="" style="shape=tableRow;horizontal=0;startSize=0;swimlaneHead=0;swimlaneBody=0;strokeColor=inherit;top=0;left=0;bottom=0;right=0;collapsible=0;dropTarget=0;fillColor=none;points=[[0,0.5],[1,0.5]];portConstraint=eastwest;fontSize=16;" vertex="1" parent="oegSrSSOjglE7JF_8wPf-158">
          <mxGeometry y="30" width="250" height="39" as="geometry" />
        </mxCell>
        <mxCell id="oegSrSSOjglE7JF_8wPf-160" value="id" style="shape=partialRectangle;html=1;whiteSpace=wrap;connectable=0;strokeColor=inherit;overflow=hidden;fillColor=none;top=0;left=0;bottom=0;right=0;pointerEvents=1;fontSize=16;" vertex="1" parent="oegSrSSOjglE7JF_8wPf-159">
          <mxGeometry width="125" height="39" as="geometry">
            <mxRectangle width="125" height="39" as="alternateBounds" />
          </mxGeometry>
        </mxCell>
        <mxCell id="oegSrSSOjglE7JF_8wPf-161" value="integer" style="shape=partialRectangle;html=1;whiteSpace=wrap;connectable=0;strokeColor=inherit;overflow=hidden;fillColor=none;top=0;left=0;bottom=0;right=0;pointerEvents=1;fontSize=16;" vertex="1" parent="oegSrSSOjglE7JF_8wPf-159">
          <mxGeometry x="125" width="125" height="39" as="geometry">
            <mxRectangle width="125" height="39" as="alternateBounds" />
          </mxGeometry>
        </mxCell>
        <mxCell id="oegSrSSOjglE7JF_8wPf-162" value="" style="shape=tableRow;horizontal=0;startSize=0;swimlaneHead=0;swimlaneBody=0;strokeColor=inherit;top=0;left=0;bottom=0;right=0;collapsible=0;dropTarget=0;fillColor=none;points=[[0,0.5],[1,0.5]];portConstraint=eastwest;fontSize=16;" vertex="1" parent="oegSrSSOjglE7JF_8wPf-158">
          <mxGeometry y="69" width="250" height="40" as="geometry" />
        </mxCell>
        <mxCell id="oegSrSSOjglE7JF_8wPf-163" value="title" style="shape=partialRectangle;html=1;whiteSpace=wrap;connectable=0;strokeColor=inherit;overflow=hidden;fillColor=none;top=0;left=0;bottom=0;right=0;pointerEvents=1;fontSize=16;" vertex="1" parent="oegSrSSOjglE7JF_8wPf-162">
          <mxGeometry width="125" height="40" as="geometry">
            <mxRectangle width="125" height="40" as="alternateBounds" />
          </mxGeometry>
        </mxCell>
        <mxCell id="oegSrSSOjglE7JF_8wPf-164" value="varchar(255)" style="shape=partialRectangle;html=1;whiteSpace=wrap;connectable=0;strokeColor=inherit;overflow=hidden;fillColor=none;top=0;left=0;bottom=0;right=0;pointerEvents=1;fontSize=16;" vertex="1" parent="oegSrSSOjglE7JF_8wPf-162">
          <mxGeometry x="125" width="125" height="40" as="geometry">
            <mxRectangle width="125" height="40" as="alternateBounds" />
          </mxGeometry>
        </mxCell>
        <mxCell id="oegSrSSOjglE7JF_8wPf-165" value="" style="shape=tableRow;horizontal=0;startSize=0;swimlaneHead=0;swimlaneBody=0;strokeColor=inherit;top=0;left=0;bottom=0;right=0;collapsible=0;dropTarget=0;fillColor=none;points=[[0,0.5],[1,0.5]];portConstraint=eastwest;fontSize=16;" vertex="1" parent="oegSrSSOjglE7JF_8wPf-158">
          <mxGeometry y="109" width="250" height="39" as="geometry" />
        </mxCell>
        <mxCell id="oegSrSSOjglE7JF_8wPf-166" value="description" style="shape=partialRectangle;html=1;whiteSpace=wrap;connectable=0;strokeColor=inherit;overflow=hidden;fillColor=none;top=0;left=0;bottom=0;right=0;pointerEvents=1;fontSize=16;" vertex="1" parent="oegSrSSOjglE7JF_8wPf-165">
          <mxGeometry width="125" height="39" as="geometry">
            <mxRectangle width="125" height="39" as="alternateBounds" />
          </mxGeometry>
        </mxCell>
        <mxCell id="oegSrSSOjglE7JF_8wPf-167" value="varchar(255)" style="shape=partialRectangle;html=1;whiteSpace=wrap;connectable=0;strokeColor=inherit;overflow=hidden;fillColor=none;top=0;left=0;bottom=0;right=0;pointerEvents=1;fontSize=16;" vertex="1" parent="oegSrSSOjglE7JF_8wPf-165">
          <mxGeometry x="125" width="125" height="39" as="geometry">
            <mxRectangle width="125" height="39" as="alternateBounds" />
          </mxGeometry>
        </mxCell>
        <mxCell id="oegSrSSOjglE7JF_8wPf-168" style="shape=tableRow;horizontal=0;startSize=0;swimlaneHead=0;swimlaneBody=0;strokeColor=inherit;top=0;left=0;bottom=0;right=0;collapsible=0;dropTarget=0;fillColor=none;points=[[0,0.5],[1,0.5]];portConstraint=eastwest;fontSize=16;" vertex="1" parent="oegSrSSOjglE7JF_8wPf-158">
          <mxGeometry y="148" width="250" height="41" as="geometry" />
        </mxCell>
        <mxCell id="oegSrSSOjglE7JF_8wPf-169" value="version" style="shape=partialRectangle;html=1;whiteSpace=wrap;connectable=0;strokeColor=inherit;overflow=hidden;fillColor=none;top=0;left=0;bottom=0;right=0;pointerEvents=1;fontSize=16;" vertex="1" parent="oegSrSSOjglE7JF_8wPf-168">
          <mxGeometry width="125" height="41" as="geometry">
            <mxRectangle width="125" height="41" as="alternateBounds" />
          </mxGeometry>
        </mxCell>
        <mxCell id="oegSrSSOjglE7JF_8wPf-170" value="varchar(255)" style="shape=partialRectangle;html=1;whiteSpace=wrap;connectable=0;strokeColor=inherit;overflow=hidden;fillColor=none;top=0;left=0;bottom=0;right=0;pointerEvents=1;fontSize=16;" vertex="1" parent="oegSrSSOjglE7JF_8wPf-168">
          <mxGeometry x="125" width="125" height="41" as="geometry">
            <mxRectangle width="125" height="41" as="alternateBounds" />
          </mxGeometry>
        </mxCell>
        <mxCell id="oegSrSSOjglE7JF_8wPf-171" style="shape=tableRow;horizontal=0;startSize=0;swimlaneHead=0;swimlaneBody=0;strokeColor=inherit;top=0;left=0;bottom=0;right=0;collapsible=0;dropTarget=0;fillColor=none;points=[[0,0.5],[1,0.5]];portConstraint=eastwest;fontSize=16;" vertex="1" parent="oegSrSSOjglE7JF_8wPf-158">
          <mxGeometry y="189" width="250" height="40" as="geometry" />
        </mxCell>
        <mxCell id="oegSrSSOjglE7JF_8wPf-172" value="status" style="shape=partialRectangle;html=1;whiteSpace=wrap;connectable=0;strokeColor=inherit;overflow=hidden;fillColor=none;top=0;left=0;bottom=0;right=0;pointerEvents=1;fontSize=16;" vertex="1" parent="oegSrSSOjglE7JF_8wPf-171">
          <mxGeometry width="125" height="40" as="geometry">
            <mxRectangle width="125" height="40" as="alternateBounds" />
          </mxGeometry>
        </mxCell>
        <mxCell id="oegSrSSOjglE7JF_8wPf-173" value="boolean" style="shape=partialRectangle;html=1;whiteSpace=wrap;connectable=0;strokeColor=inherit;overflow=hidden;fillColor=none;top=0;left=0;bottom=0;right=0;pointerEvents=1;fontSize=16;" vertex="1" parent="oegSrSSOjglE7JF_8wPf-171">
          <mxGeometry x="125" width="125" height="40" as="geometry">
            <mxRectangle width="125" height="40" as="alternateBounds" />
          </mxGeometry>
        </mxCell>
        <mxCell id="oegSrSSOjglE7JF_8wPf-174" style="shape=tableRow;horizontal=0;startSize=0;swimlaneHead=0;swimlaneBody=0;strokeColor=inherit;top=0;left=0;bottom=0;right=0;collapsible=0;dropTarget=0;fillColor=none;points=[[0,0.5],[1,0.5]];portConstraint=eastwest;fontSize=16;" vertex="1" parent="oegSrSSOjglE7JF_8wPf-158">
          <mxGeometry y="229" width="250" height="38" as="geometry" />
        </mxCell>
        <mxCell id="oegSrSSOjglE7JF_8wPf-175" value="processing_time" style="shape=partialRectangle;html=1;whiteSpace=wrap;connectable=0;strokeColor=inherit;overflow=hidden;fillColor=none;top=0;left=0;bottom=0;right=0;pointerEvents=1;fontSize=16;" vertex="1" parent="oegSrSSOjglE7JF_8wPf-174">
          <mxGeometry width="125" height="38" as="geometry">
            <mxRectangle width="125" height="38" as="alternateBounds" />
          </mxGeometry>
        </mxCell>
        <mxCell id="oegSrSSOjglE7JF_8wPf-176" style="shape=partialRectangle;html=1;whiteSpace=wrap;connectable=0;strokeColor=inherit;overflow=hidden;fillColor=none;top=0;left=0;bottom=0;right=0;pointerEvents=1;fontSize=16;" vertex="1" parent="oegSrSSOjglE7JF_8wPf-174">
          <mxGeometry x="125" width="125" height="38" as="geometry">
            <mxRectangle width="125" height="38" as="alternateBounds" />
          </mxGeometry>
        </mxCell>
        <mxCell id="oegSrSSOjglE7JF_8wPf-177" style="shape=tableRow;horizontal=0;startSize=0;swimlaneHead=0;swimlaneBody=0;strokeColor=inherit;top=0;left=0;bottom=0;right=0;collapsible=0;dropTarget=0;fillColor=none;points=[[0,0.5],[1,0.5]];portConstraint=eastwest;fontSize=16;" vertex="1" parent="oegSrSSOjglE7JF_8wPf-158">
          <mxGeometry y="267" width="250" height="38" as="geometry" />
        </mxCell>
        <mxCell id="oegSrSSOjglE7JF_8wPf-178" value="result_url" style="shape=partialRectangle;html=1;whiteSpace=wrap;connectable=0;strokeColor=inherit;overflow=hidden;fillColor=none;top=0;left=0;bottom=0;right=0;pointerEvents=1;fontSize=16;" vertex="1" parent="oegSrSSOjglE7JF_8wPf-177">
          <mxGeometry width="125" height="38" as="geometry">
            <mxRectangle width="125" height="38" as="alternateBounds" />
          </mxGeometry>
        </mxCell>
        <mxCell id="oegSrSSOjglE7JF_8wPf-179" value="varchar(255)" style="shape=partialRectangle;html=1;whiteSpace=wrap;connectable=0;strokeColor=inherit;overflow=hidden;fillColor=none;top=0;left=0;bottom=0;right=0;pointerEvents=1;fontSize=16;" vertex="1" parent="oegSrSSOjglE7JF_8wPf-177">
          <mxGeometry x="125" width="125" height="38" as="geometry">
            <mxRectangle width="125" height="38" as="alternateBounds" />
          </mxGeometry>
        </mxCell>
        <mxCell id="oegSrSSOjglE7JF_8wPf-180" style="edgeStyle=orthogonalEdgeStyle;rounded=0;orthogonalLoop=1;jettySize=auto;html=1;exitX=0;exitY=0.5;exitDx=0;exitDy=0;entryX=0;entryY=0.5;entryDx=0;entryDy=0;" edge="1" parent="WIyWlLk6GJQsqaUBKTNV-1" source="oegSrSSOjglE7JF_8wPf-159" target="oegSrSSOjglE7JF_8wPf-154">
          <mxGeometry relative="1" as="geometry">
            <Array as="points">
              <mxPoint x="220" y="430" />
              <mxPoint x="220" y="330" />
            </Array>
          </mxGeometry>
        </mxCell>
      </root>
    </mxGraphModel>
  </diagram>
</mxfile>
